<svg xmlns="http://www.w3.org/2000/svg" version="1.1" xmlns:xlink="http://www.w3.org/1999/xlink" xmlns:svgjs="http://svgjs.dev/svgjs" width="100%" height="100%" viewBox="0 0 1000 600"><rect width="1000" height="600" x="0" y="0" fill="#4a1c8f"/><g><rect width="333.3333333333333" height="333.3333333333333" rx="13.333333333333334" ry="13.333333333333334" y="240.09802753900112" fill="#ffb4c6" transform="matrix(0.573721268764416,0,0,0.573721268764416,0,66.63043098276546)" x="217.87582397460935"/><path d="M392.0862313859024 481.7646755310579L392.0862313859024 481.7646755310579Q372.28198334478753 481.7646755310579 357.22575691605357 472.89337199213577Q342.13829350302757 464.02206845321365 333.70430774419316 448.3723393229321Q325.27032198535875 432.75384717694243 325.27032198535875 412.29362246569605L325.27032198535875 412.29362246569605Q325.27032198535875 394.95709618364754 331.11163804795893 380.3381875350013Q336.984191094851 365.71927888635497 347.32363289549613 354.8175713684542Q357.6630746961413 343.9158638505534 371.8446655646998 337.8246519136175Q385.99501944896645 331.76467696097353 402.4256731865475 331.76467696097353L402.4256731865475 331.76467696097353Q413.8896464217039 331.76467696097353 424.4477471123929 334.57600554725167Q435.0370847873739 337.3873341335298 443.81467737342 342.79133241604217L443.81467737342 342.79133241604217L439.53521052541885 374.2782125823573Q435.9429573318412 374.2782125823573 433.6938944628187 373.15368114784604Q431.44483159379627 372.0291497133348 431.1949357194604 370.43606351444384L431.1949357194604 370.43606351444384L429.1957687247737 348.19533069855464L432.7880219183514 353.81798787111086Q427.1653647457951 349.06996625873006 417.4818996152815 346.25863767245187Q407.8296714690599 343.4473090861738 397.24033379407894 343.4473090861738L397.24033379407894 343.4473090861738Q381.4968937109214 343.4473090861738 369.81426158572117 351.0066592848328Q358.10039247622893 358.53477249919973 351.82175863354115 372.4664674934225Q345.51188780656133 386.4293994719372 345.51188780656133 405.5464338586285L345.51188780656133 405.5464338586285Q345.51188780656133 425.1007860254075 351.9154695864171 439.7196946740538Q358.35028835056477 454.33860332270007 369.81426158572117 462.4289822543227Q381.27823482087757 470.51936118594534 396.3344612496116 470.51936118594534L396.3344612496116 470.51936118594534Q408.0483303591038 470.51936118594534 418.262824222581 465.80257655785647Q428.5085550703502 461.0857919297676 433.4439985884829 453.43273077823267L433.4439985884829 453.43273077823267L429.4144276148176 462.21032336427885L432.10080826392783 431.4106568523873Q437.0674887663525 431.4106568523873 439.316551635375 432.2852924125627Q441.5656145043975 433.19116495703014 442.22159117452907 435.00291004596494L442.22159117452907 435.00291004596494L443.5647814990842 464.2407273432575Q434.5685300229942 472.33110627488014 420.63683502877143 477.04789090296896Q406.7051400345487 481.7646755310579 392.0862313859024 481.7646755310579Z " fill="#f96167" transform="matrix(0.573721268764416,0,0,0.573721268764416,0,66.63043098276546)"/><path d="M694.2799807771414 481.76467954773415L694.2799807771414 481.76467954773415Q676.573780512563 481.76467954773415 663.1125998697761 473.8331955175444Q649.6234914663197 465.90171148735465 642.0829960855054 451.9099033918439Q634.5425007046913 437.94602305700283 634.5425007046913 419.65333981836096L634.5425007046913 419.65333981836096Q634.5425007046913 404.1534326466874 639.7649919499219 391.08324065327616Q645.0154109558222 378.0130486598649 654.2594997374869 368.2662601861458Q663.5035885191518 358.51947171242676 676.1827918631874 353.0735583818387Q688.8340674465534 347.6555728119204 703.5240695588062 347.6555728119204L703.5240695588062 347.6555728119204Q713.7735577245795 347.6555728119204 723.2131408309322 350.1690712721918Q732.6806516979544 352.68256973246315 740.528352446135 357.5140723283182L740.528352446135 357.5140723283182L736.7022492343887 385.6652550833578Q733.4905567573752 385.6652550833578 731.4797579891581 384.65985569924925Q729.468959220941 383.6544563151407 729.2455371355835 382.23014052098694L729.2455371355835 382.23014052098694L727.4581604527239 362.3455749241732L730.6698529297373 367.372571844716Q725.6428560091945 363.1275522229243 716.985250201593 360.6140537626529Q708.3555721546612 358.1005553023815 698.8880612876391 358.1005553023815L698.8880612876391 358.1005553023815Q684.8124699101191 358.1005553023815 674.367487419658 364.8590733844446Q663.8945771685272 371.589663705838 658.2810972739211 384.04544496451626Q652.6396896186453 396.5291539838642 652.6396896186453 413.6209435137096L652.6396896186453 413.6209435137096Q652.6396896186453 431.10372169293066 658.3648805559302 444.1739136863419Q664.1179992538847 457.2441056797532 674.367487419658 464.4773956932009Q684.6169755854314 471.7106857066485 698.0781562282183 471.7106857066485L698.0781562282183 471.7106857066485Q708.5510664793491 471.7106857066485 717.683444218335 467.4935938455265Q726.8437497179908 463.27650198440455 731.2563359038006 456.4342006203324L731.2563359038006 456.4342006203324L727.6536547774116 464.28190136851305L730.0554421950043 436.7451293482065Q734.4959561414837 436.7451293482065 736.5067549097008 437.5271066469576Q738.5175536779179 438.33701170637835 739.1040366519812 439.95682182521995L739.1040366519812 439.95682182521995L740.3049303607777 466.09720581204243Q732.2617352879092 473.3304958254901 719.805954029231 477.5475876866121Q707.3501727705527 481.76467954773415 694.2799807771414 481.76467954773415ZM784.3470089368664 481.76467954773415L784.3470089368664 481.76467954773415Q774.9074258305138 481.76467954773415 768.6795352011748 476.23498293513705Q762.4237168111658 470.70528632253996 762.4237168111658 461.46119754087516L762.4237168111658 461.46119754087516Q762.4237168111658 450.0108156663055 769.7687178672923 442.77752565285783Q777.1137189234187 435.51630787874046 791.8037210356715 432.1091210770392L791.8037210356715 432.1091210770392L818.1395993471817 426.0767247723879L815.5143898442317 428.2830178652928L815.5143898442317 413.2020271036644Q815.5143898442317 402.56155028851555 811.9117087178427 397.61833664998176Q808.281099830784 392.7030507721177 800.6288934072911 392.7030507721177L800.6288934072911 392.7030507721177Q791.3848046256263 392.7030507721177 786.3578077050835 398.2327473847148Q781.3308107845407 403.76244399731183 781.3308107845407 414.207426487773L781.3308107845407 414.207426487773Q780.3254114004321 415.21282587188153 778.5101069569029 415.8272366066145Q776.7227302740432 416.4137195806779 774.9074258305138 416.4137195806779L774.9074258305138 416.4137195806779Q771.4723112681429 416.4137195806779 769.4615124999258 414.40292081246076Q767.4507137317087 412.39212204424365 767.4507137317087 408.9849352425424L767.4507137317087 408.9849352425424Q767.4507137317087 402.3381282031581 772.086722002876 397.3111312826153Q776.7227302740432 392.2841343620725 784.8497086289207 389.3796472524255Q793.0046147444679 386.47516014277863 803.0586085855534 386.47516014277863L803.0586085855534 386.47516014277863Q817.944105022494 386.47516014277863 824.8701896685752 393.90394448091405Q831.7962743146563 401.3327288190495 831.7962743146563 417.64254105014385L831.7962743146563 417.64254105014385L831.7962743146563 464.8963121032461Q831.7962743146563 468.3034989049473 833.2205901088101 470.11880334847666Q834.6169781422943 471.93410779200605 837.2421876452444 471.93410779200605L837.2421876452444 471.93410779200605Q839.4484807381493 471.93410779200605 842.1574735231085 470.70528632253996Q844.8664663080676 469.5043926137436 846.681770751597 468.10800458025955L846.681770751597 468.10800458025955L848.1060865457507 473.52599015017785Q844.8664663080676 477.35209336192435 839.8394693875248 479.5583864548292Q834.8124724669821 481.76467954773415 830.2043919564845 481.76467954773415L830.2043919564845 481.76467954773415Q823.7530792417879 481.76467954773415 820.150398115399 477.6592987292908Q816.5197892283402 473.52599015017785 816.5197892283402 465.90171148735465L816.5197892283402 465.90171148735465L815.7098841689194 465.90171148735465Q810.0964042743133 473.52599015017785 801.8577148767571 477.6592987292908Q793.5910977185312 481.76467954773415 784.3470089368664 481.76467954773415ZM791.9992153603594 472.3250964413815L791.9992153603594 472.3250964413815Q799.232505373807 472.3250964413815 805.8793124131913 468.69448755432285Q812.498191691906 465.0918064279339 816.9387056383855 458.6404937132373L816.9387056383855 458.6404937132373L815.7098841689194 462.0756082756082L815.7098841689194 431.9136267523515L818.3350936718696 432.304615401727L795.4064021620605 437.75052873231505Q786.7767241151287 439.76132750053216 782.2524268866403 444.6766133783962Q777.7281296581517 449.59189925626026 777.7281296581517 457.0486113550654L777.7281296581517 457.0486113550654Q777.7281296581517 464.0864070438253 781.5263051092285 468.19178786226854Q785.352408320975 472.3250964413815 791.9992153603594 472.3250964413815ZM899.7724437846628 479.36289213014146L860.1708791550534 479.36289213014146Q860.1708791550534 475.9557053284402 860.9528564538045 474.3358952095986Q861.7627615132253 472.7160850907571 863.3825716320669 472.1296021166938L863.3825716320669 472.1296021166938L875.4473642413695 468.3034989049473L873.2410711484647 471.1242027325852L873.2410711484647 340.22678847378495L875.6428585660574 343.2429866261106L863.1870773073791 341.00876577253604Q860.1708791550534 340.42228279847274 860.1708791550534 333.97097008377614L860.1708791550534 333.97097008377614Q866.7897584337682 332.9655706996676 871.4257667049353 332.3790877256043Q876.0338472154328 331.76467699087124 880.2788668372245 331.76467699087124L880.2788668372245 331.76467699087124Q889.5229556188893 331.76467699087124 889.5229556188893 343.4384809507984L889.5229556188893 343.4384809507984L889.5229556188893 470.70528632253996L887.093240440627 468.10800458025955L903.4030526717214 471.93410779200605Q903.4030526717214 474.95030594433166 902.6769308943096 476.45840502049447Q901.9787368775676 477.96650409665733 899.7724437846628 479.36289213014146L899.7724437846628 479.36289213014146ZM959.2865017717554 481.76467954773415L959.2865017717554 481.76467954773415Q946.8307205130772 481.76467954773415 937.4749206887336 476.34669397781573Q928.1191208643902 470.92870840789743 923.0921239438474 461.0702088914996Q918.0651270233045 451.21170937510186 918.0651270233045 437.75052873231505L918.0651270233045 437.75052873231505Q918.0651270233045 422.6695379706867 924.0137400459469 411.10744505343825Q929.9344253079195 399.5453521361898 940.3794077983806 393.0102561394842Q950.8523180495115 386.47516014277863 964.1180043676104 386.47516014277863L964.1180043676104 386.47516014277863Q973.1665988245875 386.47516014277863 980.5953831627229 389.3796472524255Q988.052095261528 392.2841343620725 992.3808981653287 397.3111312826153Q996.6817733084598 402.3381282031581 996.6817733084598 408.3705245078094L996.6817733084598 408.3705245078094Q996.6817733084598 412.39212204424365 994.3916969335459 414.7101261798272Q992.0736927979623 417.02813031541086 988.052095261528 417.02813031541086L988.052095261528 417.02813031541086Q986.2367908179987 417.02813031541086 984.6169806991571 416.5254306233566Q983.0250983409852 416.0227309313023 981.4052882221436 415.21282587188153L981.4052882221436 415.21282587188153Q981.4052882221436 404.57234905673266 976.4900023442796 398.93094140145683Q971.5467887057459 393.28953374618106 962.1072055993932 393.28953374618106L962.1072055993932 393.28953374618106Q949.2325079306697 393.28953374618106 942.3902065665977 403.4552386299453Q935.5758329631952 413.6209435137096 935.5758329631952 432.5001097264148L935.5758329631952 432.5001097264148Q935.5758329631952 452.21710875921036 943.1163283440094 462.38281364297467Q950.6568237248237 472.52059076606935 965.5143924010945 472.52059076606935L965.5143924010945 472.52059076606935Q973.5575874739629 472.52059076606935 981.0980828547772 469.19718724637715Q988.6385782355914 465.90171148735465 994.8943966256002 459.64589309734583L994.8943966256002 459.64589309734583L997.4916783678806 464.4773956932009Q993.2745865067585 469.6998869384314 987.1304791594284 473.6377011928566Q981.0142995727681 477.5475876866121 973.8647928413295 479.6700974975079Q966.7432138705606 481.76467954773415 959.2865017717554 481.76467954773415ZM1044.3544607716076 481.76467954773415L1044.3544607716076 481.76467954773415Q1032.8761511363678 481.76467954773415 1026.6482605070287 474.2241841669199Q1020.4203698776896 466.68368878610573 1020.4203698776896 450.40180431568103L1020.4203698776896 450.40180431568103L1020.4203698776896 398.12103634203606L1023.4365680300153 401.13723449436173L1010.9807867713371 398.93094140145683Q1009.5564709771833 398.73544707676905 1008.7465659177626 397.03185367591846Q1007.9645886190115 395.3003325143982 1007.9645886190115 391.89314571269693L1007.9645886190115 391.89314571269693Q1015.5888672818346 390.8877463285884 1019.5266815362597 390.3850466365341Q1023.4365680300153 389.8823469444798 1025.8383554476081 389.8823469444798L1025.8383554476081 389.8823469444798Q1031.2842687781958 389.8823469444798 1033.993261563155 392.5075564474299Q1036.7022543481144 395.1048381897104 1036.7022543481144 400.74624584498616L1036.7022543481144 400.74624584498616L1036.7022543481144 450.0108156663055Q1036.7022543481144 460.87471456681186 1041.0310572519152 465.9854947693637Q1045.359860155716 471.1242027325852 1053.7940438779597 471.1242027325852L1053.7940438779597 471.1242027325852Q1059.2399572085478 471.1242027325852 1063.9597487617243 469.3088982890559Q1068.6795403149004 467.4935938455265 1072.3939324839685 464.3936124111918Q1076.108324653036 461.2657032161874 1078.733534155986 457.43960000444093L1078.733534155986 457.43960000444093L1077.337146122502 460.87471456681186L1077.337146122502 398.12103634203606L1080.3533442748276 401.13723449436173L1067.674140930792 398.93094140145683Q1066.277752897308 398.73544707676905 1065.5516311198962 397.03185367591846Q1064.8534371031542 395.3003325143982 1064.8534371031542 391.89314571269693L1064.8534371031542 391.89314571269693Q1072.505643526647 390.8877463285884 1076.4155300204025 390.3850466365341Q1080.3533442748276 389.8823469444798 1082.5596373677326 389.8823469444798L1082.5596373677326 389.8823469444798Q1088.1731172623386 389.8823469444798 1090.798326765289 392.5075564474299Q1093.4235362682389 395.1048381897104 1093.4235362682389 400.74624584498616L1093.4235362682389 400.74624584498616L1093.4235362682389 464.8963121032461Q1093.4235362682389 468.3034989049473 1094.9316353444015 470.11880334847666Q1096.4397344205645 471.93410779200605 1099.0370161628448 471.93410779200605L1099.0370161628448 471.93410779200605Q1101.2433092557499 471.93410779200605 1103.7568077160213 470.8169973652187Q1106.2703061762927 469.6998869384314 1108.28110494451 468.10800458025955L1108.28110494451 468.10800458025955L1109.9009150633515 473.52599015017785Q1106.4937282616502 477.35209336192435 1101.4667313411073 479.5583864548292Q1096.4397344205645 481.76467954773415 1091.8037261493973 481.76467954773415L1091.8037261493973 481.76467954773415Q1085.5758355200583 481.76467954773415 1081.9452266329995 477.6592987292908Q1078.3425455066103 473.52599015017785 1078.3425455066103 465.90171148735465L1078.3425455066103 465.90171148735465L1077.337146122502 465.90171148735465Q1063.652543394358 481.76467954773415 1044.3544607716076 481.76467954773415ZM1163.5780710704803 479.36289213014146L1123.9765064408712 479.36289213014146Q1123.9765064408712 475.9557053284402 1124.7864115002917 474.3358952095986Q1125.5963165597127 472.7160850907571 1127.1881989178846 472.1296021166938L1127.1881989178846 472.1296021166938L1139.252991527187 468.3034989049473L1137.0466984342825 471.1242027325852L1137.0466984342825 340.22678847378495L1139.448485851875 343.2429866261106L1126.9927045931968 341.00876577253604Q1123.9765064408712 340.42228279847274 1123.9765064408712 333.97097008377614L1123.9765064408712 333.97097008377614Q1130.6233134802555 332.9655706996676 1135.231393990753 332.3790877256043Q1139.8674022619202 331.76467699087124 1144.084494123042 331.76467699087124L1144.084494123042 331.76467699087124Q1153.3285829047072 331.76467699087124 1153.3285829047072 343.4384809507984L1153.3285829047072 343.4384809507984L1153.3285829047072 470.70528632253996L1150.9267954871143 468.10800458025955L1167.208679957539 471.93410779200605Q1167.208679957539 474.95030594433166 1166.510485940797 476.45840502049447Q1165.812291924055 477.96650409665733 1163.5780710704803 479.36289213014146L1163.5780710704803 479.36289213014146ZM1205.2183622289767 481.76467954773415L1205.2183622289767 481.76467954773415Q1195.7508513619541 481.76467954773415 1189.522960732615 476.23498293513705Q1183.295070103276 470.70528632253996 1183.295070103276 461.46119754087516L1183.295070103276 461.46119754087516Q1183.295070103276 450.0108156663055 1190.6400711594024 442.77752565285783Q1197.9850722155288 435.51630787874046 1212.647146567112 432.1091210770392L1212.647146567112 432.1091210770392L1238.983024878622 426.0767247723879L1236.3857431363417 428.2830178652928L1236.3857431363417 413.2020271036644Q1236.3857431363417 402.56155028851555 1232.755134249283 397.61833664998176Q1229.1524531228943 392.7030507721177 1221.500246699401 392.7030507721177L1221.500246699401 392.7030507721177Q1212.2561579177363 392.7030507721177 1207.2291609971935 398.2327473847148Q1202.2021640766507 403.76244399731183 1202.2021640766507 414.207426487773L1202.2021640766507 414.207426487773Q1201.1967646925423 415.21282587188153 1199.381460249013 415.8272366066145Q1197.5661558054835 416.4137195806779 1195.7508513619541 416.4137195806779L1195.7508513619541 416.4137195806779Q1192.3436645602528 416.4137195806779 1190.332865792036 414.40292081246076Q1188.3220670238188 412.39212204424365 1188.3220670238188 408.9849352425424L1188.3220670238188 408.9849352425424Q1188.3220670238188 402.3381282031581 1192.958075294986 397.3111312826153Q1197.5661558054835 392.2841343620725 1205.721061921031 389.3796472524255Q1213.8480402759083 386.47516014277863 1223.902034116994 386.47516014277863L1223.902034116994 386.47516014277863Q1238.7875305539346 386.47516014277863 1245.7415429606854 393.90394448091405Q1252.6676276067665 401.3327288190495 1252.6676276067665 417.64254105014385L1252.6676276067665 417.64254105014385L1252.6676276067665 464.8963121032461Q1252.6676276067665 468.3034989049473 1254.0640156402505 470.11880334847666Q1255.4883314344042 471.93410779200605 1258.085613176685 471.93410779200605L1258.085613176685 471.93410779200605Q1260.3198340302592 471.93410779200605 1263.0288268152185 470.70528632253996Q1265.7378196001778 469.5043926137436 1267.5531240437072 468.10800458025955L1267.5531240437072 468.10800458025955L1268.9495120771912 473.52599015017785Q1265.7378196001778 477.35209336192435 1260.710822679635 479.5583864548292Q1255.683825759092 481.76467954773415 1251.047817487925 481.76467954773415L1251.047817487925 481.76467954773415Q1244.624432533898 481.76467954773415 1240.9938236468392 477.6592987292908Q1237.39114252045 473.52599015017785 1237.39114252045 465.90171148735465L1237.39114252045 465.90171148735465L1236.5812374610296 465.90171148735465Q1230.9398298057536 473.52599015017785 1222.7011404081977 477.6592987292908Q1214.4624510106414 481.76467954773415 1205.2183622289767 481.76467954773415ZM1212.8426408917999 472.3250964413815L1212.8426408917999 472.3250964413815Q1220.103858665917 472.3250964413815 1226.7227379446317 468.69448755432285Q1233.369544984016 465.0918064279339 1237.7821311698258 458.6404937132373L1237.7821311698258 458.6404937132373L1236.5812374610296 462.0756082756082L1236.5812374610296 431.9136267523515L1239.2064469639795 432.304615401727L1216.2777554541708 437.75052873231505Q1207.6201496465692 439.76132750053216 1203.0958524180805 444.6766133783962Q1198.5715551895923 449.59189925626026 1198.5715551895923 457.0486113550654L1198.5715551895923 457.0486113550654Q1198.5715551895923 464.0864070438253 1202.3976584013385 468.19178786226854Q1206.2237616130851 472.3250964413815 1212.8426408917999 472.3250964413815ZM1310.980791885063 481.76467954773415L1310.980791885063 481.76467954773415Q1301.317786693353 481.76467954773415 1296.5979951401764 475.7322832430828Q1291.8782035870004 469.6998869384314 1291.8782035870004 457.43960000444093L1291.8782035870004 457.43960000444093L1291.8782035870004 371.3941693811502Q1293.6935080305298 369.7743592623087 1296.4025008154886 368.4617545108336Q1299.1114936004478 367.1491497593585 1302.2394027954524 366.14375037525Q1305.339384229787 365.1383509911414 1308.1600880574247 364.9428566664537L1308.1600880574247 364.9428566664537L1308.1600880574247 455.0378125868483Q1308.1600880574247 462.885513335029 1310.4780921930087 466.4044111794089Q1312.7960963285923 469.9233090237889 1318.6329983085557 469.9233090237889L1318.6329983085557 469.9233090237889Q1323.2410788190532 469.9233090237889 1328.5752811069624 467.91251025557176Q1333.9094833948716 465.90171148735465 1338.9364803154144 461.46119754087516L1338.9364803154144 461.46119754087516L1341.7571841430527 466.488194461418Q1339.7463853748354 469.3088982890559 1334.9986660609893 472.93950717611455Q1330.2788745078133 476.5421883025036 1324.0509838784742 479.1673978054537Q1317.8230932491347 481.76467954773415 1310.980791885063 481.76467954773415ZM1333.4905669848267 399.7408464608776L1333.4905669848267 399.7408464608776L1278.193600858856 398.73544707676905Q1278.193600858856 395.91474324913116 1278.9197226362676 393.5967391135475Q1279.6179166530096 391.27873497796395 1281.0143046864937 390.2733355938554L1281.0143046864937 390.2733355938554L1337.3166701965729 388.0670425009505Q1337.7355866066182 389.07244188505905 1337.931080931306 389.99405798715856Q1338.1265752559939 390.8877463285884 1338.1265752559939 391.89314571269693L1338.1265752559939 391.89314571269693Q1338.1265752559939 395.1048381897104 1336.9256815471977 397.22734800060624Q1335.724787838401 399.3219300508324 1333.4905669848267 399.7408464608776ZM1387.3911450773135 481.76467954773415L1387.3911450773135 481.76467954773415Q1368.6795454286262 481.76467954773415 1357.8435742887896 470.11880334847666Q1346.9796753882829 458.4449993885495 1346.9796753882829 438.95142244111133L1346.9796753882829 438.95142244111133Q1346.9796753882829 423.870431679483 1353.319277060301 412.0011333948681Q1359.6309509716493 400.1318351102532 1370.6903441968434 393.28953374618106Q1381.7497374220375 386.47516014277863 1396.0487508849146 386.47516014277863L1396.0487508849146 386.47516014277863Q1408.5045321435928 386.47516014277863 1417.55312660057 391.7814346700182Q1426.601721057547 397.1156369579275 1431.6287179780898 406.7786421496375Q1436.6557148986326 416.4137195806779 1436.6557148986326 429.4839115740891L1436.6557148986326 429.4839115740891Q1436.6557148986326 444.78832442107495 1430.4278242692935 456.5459116630111Q1424.199933639954 468.3034989049473 1413.0288293720814 475.0340892263407Q1401.8577251042084 481.76467954773415 1387.3911450773135 481.76467954773415ZM1391.2172482890596 474.95030594433166L1391.2172482890596 474.95030594433166Q1404.6784289318466 474.95030594433166 1412.023429987973 464.0864070438253Q1419.3684310440995 453.222508143319 1419.3684310440995 433.72893119588076L1419.3684310440995 433.72893119588076Q1419.3684310440995 414.207426487773 1412.5261296800272 403.76244399731183Q1405.683828315955 393.28953374618106 1392.6136363225437 393.28953374618106L1392.6136363225437 393.28953374618106Q1379.1524556797567 393.28953374618106 1371.6957435809518 404.06964936467836Q1364.2669592428165 414.82183722250596 1364.2669592428165 434.7343305799894L1364.2669592428165 434.7343305799894Q1364.2669592428165 454.2279075274275 1371.1930438888976 464.5891067358796Q1378.1470562956483 474.95030594433166 1391.2172482890596 474.95030594433166ZM1493.7679854681323 479.36289213014146L1453.9429987531657 479.36289213014146Q1453.9429987531657 473.3304958254901 1457.1546912301792 472.1296021166938L1457.1546912301792 472.1296021166938L1468.6330008654186 468.3034989049473L1466.4267077725135 471.7106857066485L1466.4267077725135 397.1156369579275L1468.8284951901064 400.1318351102532L1456.9591969054914 397.9255420173483Q1455.5628088720073 397.5345533679727 1454.7529038125867 395.80303220645243Q1453.9429987531657 394.09943880560184 1453.9429987531657 390.8877463285884L1453.9429987531657 390.8877463285884Q1461.7906995013464 389.68685261979203 1465.616802713093 389.1841529277378Q1469.4429059248396 388.6814532356835 1472.0401876671199 388.6814532356835L1472.0401876671199 388.6814532356835Q1476.8716902629749 388.6814532356835 1479.2734776805673 391.3904460206426Q1481.7031928588299 394.09943880560184 1481.7031928588299 400.32732943494096L1481.7031928588299 400.32732943494096L1481.7031928588299 408.7894409178546L1480.5022991500337 407.5885472090583L1482.5130979182509 407.5885472090583Q1487.931083488169 398.12103634203606 1495.862567518359 392.2841343620725Q1503.821979309218 386.47516014277863 1511.055269322666 386.47516014277863L1511.055269322666 386.47516014277863Q1518.7074757461587 386.47516014277863 1521.9191682231722 389.7706359018011Q1525.1308607001856 393.0940394214933 1525.1308607001856 398.12103634203606L1525.1308607001856 398.12103634203606Q1525.1308607001856 401.9471395537825 1522.812856564602 404.7678433814204Q1520.494852429018 407.5885472090583 1516.8921713026293 407.5885472090583L1516.8921713026293 407.5885472090583Q1514.071467474991 402.3381282031581 1511.055269322666 400.55075152029843Q1508.0390711703403 398.73544707676905 1504.4084622832816 398.73544707676905L1504.4084622832816 398.73544707676905Q1498.7949823886752 398.73544707676905 1492.567091759336 403.76244399731183Q1486.3112733693274 408.7894409178546 1481.2842764487846 415.8272366066145L1481.2842764487846 415.8272366066145L1482.7085922429383 412.0011333948681L1482.7085922429383 471.51519138196073L1479.8878884153005 467.91251025557176L1497.3706665945215 471.7106857066485Q1497.3706665945215 474.7268838589742 1496.6724725777794 476.34669397781573Q1495.9742785610374 477.96650409665733 1493.7679854681323 479.36289213014146L1493.7679854681323 479.36289213014146Z " fill="#ffffff" transform="matrix(0.573721268764416,0,0,0.573721268764416,0,66.63043098276546)"/></g></svg>