<svg xmlns="http://www.w3.org/2000/svg" xml:space="preserve" viewBox="0 0 24 24" id="treehouse">
  <path d="M12 23.999c-.41 0-.82-.103-1.186-.308l-8.617-4.835A2.324 2.324 0 0 1 1 16.836v-9.67c0-.832.458-1.606 1.197-2.021L10.814.31a2.44 2.44 0 0 1 2.372 0l1.84 1.033a.5.5 0 0 1 .171.159c.671 1.006.174 2.846-1.298 4.8-1.64 2.176-4.005 3.159-6.492 2.69-.183.009-.407.233-.407.509s.224.5.5.5c.238 0 .37-.177.416-.253a.525.525 0 0 1 .437-.243c.665.012 2.396.04 2.794-.357a.5.5 0 0 1 .707.707l-.34.35c-1.3 1.353-2.789 2.796-4.014 2.796a.5.5 0 0 0 0 1c.257 0 .42-.194.468-.387a.503.503 0 0 1 .228-.309c1.278-.77 3.532-2.224 3.534-2.225a.5.5 0 0 1 .753.553c-.047.169-1.153 4.153-1.891 5.391a.508.508 0 0 1-.148.158.98.98 0 0 0-.444.819c0 .551.449 1 1 1s1-.449 1-1c0-.215-.07-.42-.203-.595a.497.497 0 0 1-.064-.494c.11-.266.243-.629.391-1.036.881-2.412 1.481-3.875 2.377-3.875.681 0 1.274.596 1.763 1.772a.5.5 0 0 1-.076.51.74.74 0 0 0 .033.998.77.77 0 0 0 1.061 0 .744.744 0 0 0 0-1.06C16.348 13.288 15 11.25 15 10.001c0-1.115.585-2.502 1.606-3.808l.166-.214c.701-.91 1.574-2.042 3.152-1.846a.5.5 0 0 1 .183.06l1.697.952A2.327 2.327 0 0 1 23 7.166v9.67c0 .832-.458 1.606-1.197 2.021l-8.617 4.835a2.427 2.427 0 0 1-1.186.307zm0-22.998c-.241 0-.482.06-.697.181L2.686 6.017A1.326 1.326 0 0 0 2 7.166v9.67c0 .471.263.911.686 1.149l8.617 4.835c.43.241.964.241 1.394 0l8.617-4.835c.423-.238.686-.678.686-1.149v-9.67c0-.471-.263-.911-.686-1.149l-1.606-.901c-.959-.076-1.533.681-2.144 1.474l-.17.22C16.521 7.925 16 9.118 16 10.001c0 .821 1.093 2.618 1.987 3.513.331.331.513.77.513 1.237s-.182.907-.513 1.237a1.75 1.75 0 0 1-2.475 0 1.73 1.73 0 0 1-.281-2.074c-.313-.665-.602-.914-.732-.914-.337.208-1.108 2.317-1.438 3.218-.112.308-.216.591-.308.829.163.292.247.617.247.954 0 1.103-.897 2-2 2s-2-.897-2-2c0-.614.29-1.193.78-1.572.402-.735.969-2.469 1.368-3.789a145.8 145.8 0 0 1-2.278 1.426c-.227.56-.763.935-1.37.935-.827 0-1.5-.673-1.5-1.5s.673-1.5 1.5-1.5c.602 0 1.548-.777 2.324-1.516-.395.024-.813.03-1.233.023a1.464 1.464 0 0 1-1.091.493c-.827 0-1.5-.673-1.5-1.5s.673-1.5 1.5-1.5c1.325.238 3.681.247 5.601-2.301 1.348-1.79 1.526-3.058 1.313-3.555l-1.717-.963A1.421 1.421 0 0 0 12 1.001z"></path>
</svg>
